<svg width="100%" height="100%" viewBox="0 0 33 32" fill="none" xmlns="http://www.w3.org/2000/svg" fit="" preserveAspectRatio="xMidYMid meet" focusable="false">
<path d="M14.9675 3V5L18.9675 5V3H14.9675Z" fill="currentColor"/>
<path d="M13.9675 27V29H19.9675V27H13.9675Z" fill="currentColor"/>
<path fill-rule="evenodd" clip-rule="evenodd" d="M5.96753 23H7.96753V15.0882C7.96753 12.6814 8.91311 10.371 10.5997 8.66577C12.2867 6.9602 14.577 6 16.9675 6C19.358 6 21.6484 6.9602 23.3354 8.66577C25.022 10.371 25.9675 12.6814 25.9675 15.0882V23H27.9675V25L5.96753 25V23ZM9.96753 23L23.9675 23V15.0882C23.9675 13.2048 23.2274 11.4007 21.9134 10.0722C20.5998 8.7441 18.8205 8 16.9675 8C15.1146 8 13.3353 8.7441 12.0216 10.0722C10.7077 11.4007 9.96753 13.2048 9.96753 15.0882V23Z" fill="currentColor"/>
</svg>